<mxfile host="app.diagrams.net" modified="2023-07-11T21:11:29.184Z" agent="Mozilla/5.0 (Windows NT 10.0; Win64; x64) AppleWebKit/537.36 (KHTML, like Gecko) Chrome/113.0.0.0 Safari/537.36 OPR/99.0.0.0" etag="gS9DDU9chpxSFdwqKxGu" version="21.6.2">
  <diagram name="Página-1" id="PIDLRhV4TczaTXsxet6s">
    <mxGraphModel dx="1393" dy="758" grid="1" gridSize="10" guides="1" tooltips="1" connect="1" arrows="1" fold="1" page="1" pageScale="1" pageWidth="827" pageHeight="1169" math="0" shadow="0">
      <root>
        <mxCell id="0" />
        <mxCell id="1" parent="0" />
        <mxCell id="wTw33-Boe_963PqF_ueB-11" style="edgeStyle=orthogonalEdgeStyle;rounded=0;orthogonalLoop=1;jettySize=auto;html=1;" edge="1" parent="1" source="wTw33-Boe_963PqF_ueB-1" target="wTw33-Boe_963PqF_ueB-10">
          <mxGeometry relative="1" as="geometry" />
        </mxCell>
        <mxCell id="wTw33-Boe_963PqF_ueB-1" value="Início" style="strokeWidth=2;html=1;shape=mxgraph.flowchart.start_1;whiteSpace=wrap;" vertex="1" parent="1">
          <mxGeometry x="340" y="60" width="100" height="60" as="geometry" />
        </mxCell>
        <mxCell id="wTw33-Boe_963PqF_ueB-2" value="FIM" style="strokeWidth=2;html=1;shape=mxgraph.flowchart.terminator;whiteSpace=wrap;" vertex="1" parent="1">
          <mxGeometry x="340" y="555" width="100" height="60" as="geometry" />
        </mxCell>
        <mxCell id="wTw33-Boe_963PqF_ueB-8" style="edgeStyle=orthogonalEdgeStyle;rounded=0;orthogonalLoop=1;jettySize=auto;html=1;" edge="1" parent="1" source="wTw33-Boe_963PqF_ueB-3" target="wTw33-Boe_963PqF_ueB-6">
          <mxGeometry relative="1" as="geometry" />
        </mxCell>
        <mxCell id="wTw33-Boe_963PqF_ueB-3" value="num, den" style="html=1;strokeWidth=2;shape=manualInput;whiteSpace=wrap;rounded=1;size=26;arcSize=11;" vertex="1" parent="1">
          <mxGeometry x="330" y="240" width="120" height="60" as="geometry" />
        </mxCell>
        <mxCell id="wTw33-Boe_963PqF_ueB-17" style="edgeStyle=orthogonalEdgeStyle;rounded=0;orthogonalLoop=1;jettySize=auto;html=1;entryX=0.5;entryY=0;entryDx=0;entryDy=0;entryPerimeter=0;" edge="1" parent="1" source="wTw33-Boe_963PqF_ueB-6" target="wTw33-Boe_963PqF_ueB-15">
          <mxGeometry relative="1" as="geometry" />
        </mxCell>
        <mxCell id="wTw33-Boe_963PqF_ueB-6" value="result =&amp;nbsp; num / den" style="rounded=0;whiteSpace=wrap;html=1;" vertex="1" parent="1">
          <mxGeometry x="330" y="330" width="120" height="60" as="geometry" />
        </mxCell>
        <mxCell id="wTw33-Boe_963PqF_ueB-14" style="edgeStyle=orthogonalEdgeStyle;rounded=0;orthogonalLoop=1;jettySize=auto;html=1;entryX=0.5;entryY=0;entryDx=0;entryDy=0;" edge="1" parent="1" source="wTw33-Boe_963PqF_ueB-10" target="wTw33-Boe_963PqF_ueB-3">
          <mxGeometry relative="1" as="geometry" />
        </mxCell>
        <mxCell id="wTw33-Boe_963PqF_ueB-10" value="int: num, den, result" style="rounded=0;whiteSpace=wrap;html=1;" vertex="1" parent="1">
          <mxGeometry x="330" y="150" width="120" height="60" as="geometry" />
        </mxCell>
        <mxCell id="wTw33-Boe_963PqF_ueB-18" style="edgeStyle=orthogonalEdgeStyle;rounded=0;orthogonalLoop=1;jettySize=auto;html=1;entryX=0.5;entryY=0;entryDx=0;entryDy=0;entryPerimeter=0;" edge="1" parent="1" source="wTw33-Boe_963PqF_ueB-15" target="wTw33-Boe_963PqF_ueB-2">
          <mxGeometry relative="1" as="geometry" />
        </mxCell>
        <mxCell id="wTw33-Boe_963PqF_ueB-15" value="num / den = result" style="strokeWidth=2;html=1;shape=mxgraph.flowchart.display;whiteSpace=wrap;" vertex="1" parent="1">
          <mxGeometry x="325" y="430" width="130" height="80" as="geometry" />
        </mxCell>
      </root>
    </mxGraphModel>
  </diagram>
</mxfile>
